<svg width="132" height="132" viewBox="0 0 132 132" fill="none" xmlns="http://www.w3.org/2000/svg">
<circle cx="66" cy="66.3506" r="65.5" fill="#E6EBF5"/>
<rect x="11.8906" y="12.2373" width="108.217" height="108.217" rx="54.1087" fill="white"/>
<path d="M88.3584 73.6213C82.6652 79.2869 74.5122 81.0281 67.3542 78.7895L54.3371 91.7789C53.3975 92.7462 51.5458 93.3266 50.2192 93.1331L44.1943 92.304C42.2044 92.0276 40.3527 90.1483 40.0487 88.1584L39.2196 82.1335C39.0261 80.807 39.6618 78.9553 40.5738 78.0156L53.5633 65.0262C51.3523 57.8405 53.0658 49.6876 58.7591 44.0219C66.912 35.869 80.1502 35.869 88.3308 44.0219C96.5114 52.1749 96.5114 65.4684 88.3584 73.6213Z" stroke="#003399" stroke-width="4.14557" stroke-miterlimit="10" stroke-linecap="round" stroke-linejoin="round"/>
<path d="M52.7065 80.6963L59.0631 87.0528" stroke="#003399" stroke-width="4.14557" stroke-miterlimit="10" stroke-linecap="round" stroke-linejoin="round"/>
<path d="M73.7383 62.7589C76.0279 62.7589 77.8839 60.9029 77.8839 58.6133C77.8839 56.3238 76.0279 54.4678 73.7383 54.4678C71.4488 54.4678 69.5928 56.3238 69.5928 58.6133C69.5928 60.9029 71.4488 62.7589 73.7383 62.7589Z" stroke="#003399" stroke-width="4.14557" stroke-linecap="round" stroke-linejoin="round"/>
</svg>
