<svg width="22" height="22" viewBox="0 0 22 22" fill="none" xmlns="http://www.w3.org/2000/svg">
<path d="M9.85417 16.5C9.65938 16.5 9.49609 16.4337 9.36432 16.3012C9.23255 16.1686 9.16667 16.0044 9.16667 15.8085C9.16667 15.6126 9.23255 15.4497 9.36432 15.3198C9.49609 15.1899 9.65938 15.125 9.85417 15.125H12.1458C12.3406 15.125 12.5039 15.1913 12.6357 15.3238C12.7674 15.4564 12.8333 15.6206 12.8333 15.8165C12.8333 16.0124 12.7674 16.1753 12.6357 16.3052C12.5039 16.4351 12.3406 16.5 12.1458 16.5H9.85417ZM6.1875 11.6875C5.99271 11.6875 5.82943 11.6212 5.69766 11.4887C5.56589 11.3561 5.5 11.1919 5.5 10.996C5.5 10.8001 5.56589 10.6372 5.69766 10.5073C5.82943 10.3774 5.99271 10.3125 6.1875 10.3125H15.8125C16.0073 10.3125 16.1706 10.3788 16.3023 10.5113C16.4341 10.6439 16.5 10.8081 16.5 11.004C16.5 11.1999 16.4341 11.3628 16.3023 11.4927C16.1706 11.6226 16.0073 11.6875 15.8125 11.6875H6.1875ZM3.4375 6.875C3.24271 6.875 3.07943 6.80873 2.94766 6.6762C2.81589 6.54365 2.75 6.37941 2.75 6.18349C2.75 5.98755 2.81589 5.82465 2.94766 5.69479C3.07943 5.56493 3.24271 5.5 3.4375 5.5H18.5625C18.7573 5.5 18.9206 5.56627 19.0523 5.6988C19.1841 5.83135 19.25 5.99559 19.25 6.19151C19.25 6.38745 19.1841 6.55035 19.0523 6.68021C18.9206 6.81007 18.7573 6.875 18.5625 6.875H3.4375Z" fill="#0DDE65"/>
</svg>
