<svg width="433" height="359" viewBox="0 0 433 359" fill="none" xmlns="http://www.w3.org/2000/svg">
<g opacity="0.5" clip-path="url(#clip0_906_4146)">
<path d="M400.025 84.4464L402.205 126.798L395.587 122.971L388.215 131.828L379.054 124.964L366.473 140.357L347.469 121.534L334.879 134.063L326.912 127.535L310.933 142.981L302.165 132.314L298.637 64.9696L372.969 61.2452L400.025 84.4464Z" fill="#CFF8E0"/>
<path d="M372.968 61.2446L400.024 84.4457L374.203 85.805L372.968 61.2446Z" fill="#6EEBA3"/>
<path d="M402.554 135.216L405.723 197.29L305.656 202.351L302.45 140.842L311.305 151.486L327.26 135.954L335.25 142.568L347.754 130.062L366.822 148.776L379.339 133.492L388.478 140.27L395.849 131.413L402.554 135.216Z" fill="#CFF8E0"/>
<path d="M247.587 192.617L151.619 163.577L189.008 40.0592L260.281 61.5543L277.892 92.536L247.587 192.617Z" fill="#CFF8E0"/>
<path d="M260.282 61.5548L277.894 92.5365L253.168 85.0755L260.282 61.5548Z" fill="#6EEBA3"/>
<path d="M204.089 133.212L204.751 130.403C205.919 124.439 209.792 118.62 217.155 113.906C223.767 109.678 227.666 106.351 229.191 101.475C230.851 95.9798 228.585 91.3193 221.886 89.1187C218.03 87.9735 213.403 87.879 210.001 89.0984L209.473 81.5504C213.814 80.1068 220.415 80.2658 226.142 82.01C238.432 85.8089 241.637 95.1148 239.148 103.357C236.918 110.645 231.245 114.65 224.143 119.174C217.676 123.266 214.479 127.522 213.185 133.057L212.408 135.919L204.089 133.212ZM197.069 147.507C198.252 143.554 201.851 141.548 205.592 142.746C209.333 143.944 211.075 147.455 209.778 151.461C208.574 155.215 205.31 157.345 201.286 156.138C197.628 154.971 195.949 151.292 197.069 147.507Z" fill="#6EEBA3"/>
<path d="M33.0016 64.8062L22.9227 60.2411L21.4956 63.374C21.0496 64.2691 20.1577 64.8957 19.1766 64.8957C18.6414 64.8957 18.1063 64.9852 17.5711 65.0748C16.59 65.2538 15.6088 64.8062 15.0737 64.0006L13.1114 61.2257L4.1029 67.6706L6.06515 70.4455C6.60031 71.2511 6.6895 72.3253 6.24354 73.2204C5.97596 73.7575 5.79757 74.205 5.52999 74.7421C5.17322 75.6372 4.37048 76.3533 3.38935 76.4428L0 76.7114L1.07032 87.7214L4.45967 87.3634C5.4408 87.2738 6.42192 87.7214 6.95709 88.6165C7.13547 88.8851 7.22467 89.0641 7.40305 89.3326C7.58144 89.5117 7.75983 89.7802 7.93821 89.9592C8.56257 90.7648 8.74095 91.7495 8.29499 92.6446L6.86789 95.7775L16.9467 100.343L18.3738 97.2097C18.8198 96.3146 19.7117 95.688 20.6929 95.688C21.228 95.688 21.7632 95.5985 22.2983 95.509C23.2795 95.33 24.2606 95.7775 24.7958 96.5831L26.758 99.358L35.7666 92.9131L33.8043 90.1382C33.2691 89.3326 33.1799 88.2585 33.6259 87.3634C33.8935 86.9158 34.0719 86.3787 34.3395 85.8416C34.6962 84.9465 35.499 84.2304 36.4801 84.1409L39.8694 83.7829L38.7991 72.7728L35.4098 73.1309C34.4287 73.2204 33.4475 72.7728 32.9124 71.8777C32.734 71.6092 32.6448 71.4301 32.4664 71.1616C32.288 70.9826 32.1096 70.714 31.9312 70.535C31.3069 69.7294 31.1285 68.7448 31.5745 67.7601L33.0016 64.8062ZM27.2932 75.0106C30.2366 79.1282 29.2554 84.7675 25.2417 87.7214C21.1388 90.6753 15.5197 89.6907 12.5763 85.6626C9.63289 81.545 10.614 75.9058 14.6277 72.9519C18.7306 69.9979 24.3498 70.8931 27.2932 75.0106Z" fill="#CFF8E0"/>
<path d="M408.147 215.431L404.712 222.343L406.818 223.414C407.463 223.737 407.86 224.333 407.836 225.102C407.886 225.499 407.812 225.871 407.936 226.218C407.986 226.938 407.665 227.582 407.145 227.928L405.141 229.262L409.457 235.745L411.462 234.41C412.055 234.014 412.774 233.966 413.344 234.34C413.691 234.539 414.037 234.738 414.335 234.862C414.979 235.186 415.45 235.733 415.5 236.452L415.676 238.808L423.378 238.305L423.202 235.948C423.151 235.229 423.473 234.585 424.116 234.264C424.265 234.165 424.413 234.066 424.562 233.967C424.71 233.869 424.859 233.77 425.007 233.671C425.601 233.275 426.27 233.153 426.914 233.477L429.02 234.548L432.455 227.636L430.349 226.565C429.704 226.241 429.307 225.645 429.331 224.877C429.281 224.48 429.355 224.108 429.231 223.761C429.181 223.041 429.502 222.397 430.022 222.051L432.026 220.716L427.71 214.234L425.854 215.47C425.26 215.866 424.542 215.914 423.972 215.54C423.625 215.341 423.278 215.142 422.981 215.018C422.337 214.694 421.865 214.147 421.815 213.428L421.639 211.072L413.938 211.575L414.114 213.932C414.164 214.651 413.793 215.22 413.199 215.616C413.051 215.715 412.902 215.814 412.754 215.913C412.605 216.011 412.457 216.11 412.308 216.209C411.714 216.605 411.046 216.727 410.402 216.403L408.147 215.431ZM415.16 219.687C418.056 217.759 422.019 218.562 423.954 221.467C425.889 224.373 425.1 228.339 422.205 230.267C419.31 232.195 415.346 231.393 413.411 228.487C411.477 225.581 412.265 221.615 415.16 219.687Z" fill="#CFF8E0"/>
<path d="M53.3399 31.6874L47.1856 36.4315L48.6127 38.3113C49.0586 38.8484 49.0586 39.654 48.791 40.2806C48.6127 40.6386 48.4343 40.9967 48.3451 41.3547C48.0775 41.9813 47.5423 42.5184 46.8288 42.6079L44.5098 42.8764L45.4909 50.5745L47.8099 50.3059C48.5235 50.2164 49.1478 50.5745 49.5938 51.1116C49.7722 51.4696 50.0398 51.7381 50.3073 52.0067C50.7533 52.5438 50.9317 53.2599 50.6641 53.8864L49.7722 56.1243L56.9076 59.0782L57.7996 56.8404C58.0672 56.2138 58.6915 55.7662 59.4051 55.7662C59.5834 55.7662 59.7618 55.7662 59.9402 55.6767C60.1186 55.6767 60.297 55.5872 60.4754 55.5872C61.1889 55.4977 61.8133 55.6767 62.2593 56.3033L63.6863 58.183L69.8407 53.4389L68.4136 51.5591C67.9676 51.022 67.9676 50.2164 68.2352 49.5899C68.4136 49.2318 68.592 48.8738 68.6812 48.5157C68.9488 47.8891 69.4839 47.352 70.1975 47.2625L72.5165 46.994L71.5354 39.2959L69.2163 39.5645C68.5028 39.654 67.8784 39.2959 67.4325 38.7588C67.2541 38.4008 66.9865 38.1323 66.7189 37.8637C66.273 37.3266 66.0946 36.6105 66.3621 35.984L67.2541 33.7461L60.1186 30.7922L59.2267 33.03C58.9591 33.6566 58.3347 34.1042 57.6212 34.1042C57.4428 34.1042 57.2644 34.1042 57.086 34.1937C56.9076 34.1937 56.7293 34.2832 56.5509 34.2832C55.8373 34.3727 55.1238 34.1937 54.767 33.5671L53.3399 31.6874ZM57.7104 38.6693C61.1889 38.2218 64.3999 40.6386 64.8459 44.1296C65.2918 47.6206 62.8836 50.843 59.4051 51.2906C55.9265 51.7381 52.7156 49.3213 52.2696 45.8303C51.8236 42.2498 54.2318 39.1169 57.7104 38.6693Z" fill="#CFF8E0"/>
<path d="M212.727 358.945C326.223 358.945 418.229 346.361 418.229 330.838C418.229 315.315 326.223 302.731 212.727 302.731C99.2318 302.731 7.22559 315.315 7.22559 330.838C7.22559 346.361 99.2318 358.945 212.727 358.945Z" fill="#CFF8E0"/>
<path d="M341.967 336.839H70.2842L109.529 113.236H381.302L341.967 336.839Z" fill="#6EEBA3"/>
<path d="M202.558 90.0521H113.632L109.529 113.236H204.699L202.558 90.0521Z" fill="#6EEBA3"/>
<g opacity="0.1">
<path d="M341.967 336.839H70.2842L109.529 113.236H381.302L341.967 336.839Z" fill="#001F5C"/>
<path d="M202.558 90.0521H113.632L109.529 113.236H204.699L202.558 90.0521Z" fill="#0DDE65"/>
</g>
<path d="M104 138.763C103.643 137.42 103.554 136.167 103.554 134.825C103.554 133.482 103.643 132.229 104 130.886C104.356 132.229 104.446 133.482 104.446 134.825C104.446 136.167 104.356 137.51 104 138.763Z" fill="#0DDE65"/>
<path d="M96.1507 141.089C95.1696 140.105 94.4561 139.031 93.8317 137.956C93.2074 136.793 92.583 135.629 92.3154 134.376C93.2966 135.36 94.0101 136.435 94.6345 137.509C95.1696 138.672 95.794 139.836 96.1507 141.089Z" fill="#0DDE65"/>
<path d="M90.4434 147.087C89.1055 146.729 87.946 146.192 86.8757 145.565C85.8054 144.939 84.6458 144.223 83.7539 143.238C85.0918 143.596 86.2513 144.133 87.3216 144.76C88.392 145.386 89.4623 146.103 90.4434 147.087Z" fill="#0DDE65"/>
<path d="M88.4809 155.054C87.1429 155.412 85.8942 155.502 84.5563 155.502C83.2184 155.502 81.9697 155.412 80.6318 155.054C81.9697 154.696 83.2184 154.607 84.5563 154.607C85.8942 154.607 87.1429 154.696 88.4809 155.054Z" fill="#0DDE65"/>
<path d="M90.711 163.022C89.7299 164.007 88.6595 164.723 87.5892 165.35C86.4297 165.976 85.2702 166.603 84.0215 166.871C85.0026 165.887 86.0729 165.171 87.1433 164.544C88.3028 163.917 89.4623 163.38 90.711 163.022Z" fill="#0DDE65"/>
<path d="M96.6859 168.749C96.3291 170.092 95.794 171.255 95.1696 172.33C94.5453 173.404 93.8317 174.567 92.8506 175.463C93.2074 174.12 93.7425 172.956 94.3669 171.882C94.9912 170.718 95.7048 169.644 96.6859 168.749Z" fill="#0DDE65"/>
<path d="M104.625 170.719C104.981 172.062 105.071 173.315 105.071 174.657C105.071 176 104.981 177.253 104.625 178.596C104.268 177.253 104.179 176 104.179 174.657C104.179 173.315 104.268 171.972 104.625 170.719Z" fill="#0DDE65"/>
<path d="M112.562 168.391C113.543 169.376 114.256 170.45 114.881 171.524C115.505 172.688 116.129 173.852 116.397 175.105C115.416 174.12 114.702 173.046 114.078 171.972C113.453 170.898 112.918 169.734 112.562 168.391Z" fill="#0DDE65"/>
<path d="M118.273 162.482C119.611 162.84 120.771 163.377 121.841 164.004C122.911 164.631 124.071 165.347 124.963 166.331C123.625 165.973 122.466 165.436 121.395 164.81C120.325 164.094 119.165 163.377 118.273 162.482Z" fill="#0DDE65"/>
<path d="M120.233 154.429C121.571 154.071 122.82 153.981 124.158 153.981C125.496 153.981 126.745 154.071 128.082 154.429C126.745 154.787 125.496 154.876 124.158 154.876C122.82 154.876 121.482 154.787 120.233 154.429Z" fill="#0DDE65"/>
<path d="M117.914 146.55C118.895 145.566 119.966 144.85 121.036 144.223C122.195 143.597 123.355 142.97 124.604 142.701C123.622 143.686 122.552 144.402 121.482 145.029C120.411 145.566 119.252 146.192 117.914 146.55Z" fill="#0DDE65"/>
<path d="M112.025 140.822C112.382 139.48 112.917 138.316 113.542 137.242C114.166 136.168 114.88 135.004 115.861 134.109C115.504 135.452 114.969 136.615 114.344 137.69C113.72 138.764 113.007 139.838 112.025 140.822Z" fill="#0DDE65"/>
<path d="M341.611 336.836H69.3037L30.5938 121.29H302.99L341.611 336.836Z" fill="#0DDE65"/>
<path d="M124.96 253.053C131.216 253.053 136.288 247.963 136.288 241.685C136.288 235.407 131.216 230.317 124.96 230.317C118.704 230.317 113.633 235.407 113.633 241.685C113.633 247.963 118.704 253.053 124.96 253.053Z" fill="#000A1F"/>
<path d="M214.422 253.053C220.678 253.053 225.75 247.963 225.75 241.685C225.75 235.407 220.678 230.317 214.422 230.317C208.166 230.317 203.095 235.407 203.095 241.685C203.095 247.963 208.166 253.053 214.422 253.053Z" fill="#000A1F"/>
<path d="M194.709 255.823L193.739 254.574C193.601 254.477 184.593 242.843 166.3 242.843C149.671 242.843 145.513 253.804 145.375 254.285L144.821 255.727L140.802 255.054L141.217 253.612C141.217 253.516 146.206 239.958 166.162 239.958C186.949 239.958 196.926 252.747 197.342 253.227L198.312 254.477L194.709 255.823Z" fill="#000A1F"/>
<path d="M323.502 240.43C324.126 240.34 324.661 240.161 325.197 239.982" stroke="#0DDE65" stroke-width="1.98312" stroke-miterlimit="10"/>
<path d="M328.675 238.998C342.322 234.344 353.739 223.602 354.809 210.981C357.217 183.232 323.502 167.925 326.981 135.88C330.281 105.267 362.301 103.118 375.056 107.325C389.238 111.98 384.332 125.675 371.577 123.885C349.368 120.842 335.365 96.5839 345.979 69.1036C353.828 48.5157 373.54 40.8177 381.478 38.4904" stroke="#0DDE65" stroke-width="1.98312" stroke-miterlimit="10" stroke-dasharray="7.94 7.94"/>
<path d="M383.174 37.9523C384.244 37.6838 384.868 37.5048 384.868 37.5048" stroke="#0DDE65" stroke-width="1.98312" stroke-miterlimit="10"/>
<path d="M378.836 39.3936C379.245 46.8243 394.54 48.3278 394.107 38.574C393.65 28.9065 378.512 31.986 378.836 39.3936Z" fill="#0DDE65"/>
<path d="M400.15 48.0713C399.253 51.0744 394.515 52.2144 388.848 49.5839C383.268 46.9766 378.82 41.5219 378.82 41.5219C378.82 41.5219 385.542 39.5236 391.672 40.4248C397.865 41.4355 401.133 45.0913 400.15 48.0713Z" fill="#CFF8E0"/>
<path d="M378.845 41.4359C381.861 42.2439 384.939 43.1614 387.931 44.0558C390.901 45.0367 393.979 45.9542 396.925 47.0216C393.909 46.2136 390.831 45.2961 387.839 44.4017C384.847 43.5072 381.878 42.5263 378.845 41.4359Z" fill="#0DDE65"/>
<path d="M393.598 49.0969C392.852 48.4338 392.106 47.7706 391.47 47.0441C390.833 46.3175 390.111 45.5679 389.584 44.778C390.33 45.4411 391.075 46.1043 391.712 46.8309C392.348 47.5574 392.984 48.2839 393.598 49.0969Z" fill="#0DDE65"/>
<path d="M386.421 43.8369C387.382 43.3529 388.382 43.065 389.297 42.754C390.297 42.4661 391.298 42.1781 392.275 41.9767C391.314 42.4606 390.314 42.7485 389.4 43.0595C388.508 43.2841 387.485 43.6585 386.421 43.8369Z" fill="#0DDE65"/>
<path d="M385.119 45.2493C384.735 44.9609 384.397 44.4996 384.121 44.1479C383.87 43.7097 383.594 43.358 383.366 42.8333C383.75 43.1217 384.088 43.583 384.363 43.9347C384.615 44.3729 384.977 44.7477 385.119 45.2493Z" fill="#0DDE65"/>
<path d="M399.322 28.7584C398.138 25.9391 393.261 25.1882 387.967 28.4032C382.673 31.6183 378.782 37.5258 378.782 37.5258C378.782 37.5258 385.727 38.8308 391.684 37.2761C397.664 35.6351 400.592 31.6007 399.322 28.7584Z" fill="#CFF8E0"/>
<path d="M378.782 37.5266C381.767 36.3804 384.666 35.2111 387.588 33.9553C390.51 32.6995 393.432 31.4437 396.291 30.0783C393.329 31.1381 390.407 32.3939 387.485 33.6497C384.563 34.9055 381.641 36.1613 378.782 37.5266Z" fill="#0DDE65"/>
<path d="M392.687 28.3707C391.939 29.0968 391.362 29.8691 390.786 30.6413C390.21 31.4136 389.61 32.2724 389.097 33.1542C389.846 32.4281 390.422 31.6558 390.998 30.8835C391.598 30.0248 392.174 29.2525 392.687 28.3707Z" fill="#0DDE65"/>
<path d="M386.088 34.3873C387.099 34.7507 388.069 34.9182 389.103 35.1952C390.16 35.3858 391.131 35.5533 392.211 35.6574C391.201 35.2939 390.23 35.1264 389.196 34.8494C388.139 34.6588 387.168 34.4913 386.088 34.3873Z" fill="#0DDE65"/>
<path d="M384.596 33.0617C384.221 33.4247 383.933 33.8109 383.708 34.3065C383.506 34.7158 383.195 35.1884 383.056 35.7072C383.43 35.3441 383.718 34.958 383.943 34.4623C384.255 33.9897 384.457 33.5804 384.596 33.0617Z" fill="#0DDE65"/>
<path d="M378.837 39.3937C380.331 39.3308 381.588 40.5014 381.671 41.9137C381.731 43.4126 380.562 44.6747 379.154 44.7607C377.659 44.8236 376.403 43.653 376.32 42.2407C376.26 40.7419 377.429 39.4798 378.837 39.3937Z" fill="#6685C2"/>
<path d="M378.605 34.0505C380.099 33.9875 381.355 35.1581 381.438 36.5705C381.498 38.0693 380.329 39.3314 378.921 39.4174C377.427 39.4804 376.171 38.3098 376.087 36.8974C376.027 35.3986 377.11 34.1134 378.605 34.0505Z" fill="#6685C2"/>
</g>
<defs>
<clipPath id="clip0_906_4146">
<rect width="432.32" height="358.945" fill="white"/>
</clipPath>
</defs>
</svg>
